<?xml version="1.0" standalone="no"?><!DOCTYPE svg PUBLIC "-//W3C//DTD SVG 1.1//EN" "http://www.w3.org/Graphics/SVG/1.1/DTD/svg11.dtd"><svg t="1625125462798" class="icon" viewBox="0 0 1024 1024" version="1.1" xmlns="http://www.w3.org/2000/svg" p-id="2436" xmlns:xlink="http://www.w3.org/1999/xlink" width="200" height="200"><defs><style type="text/css"></style></defs><path d="M512 632.152659A204.966301 204.966301 0 0 0 716.966301 427.186358V204.758425a204.966301 204.966301 0 0 0-409.724726 0v222.427933a204.758425 204.758425 0 0 0 204.758425 204.966301z" fill="#ffffff" p-id="2437"></path><path d="M930.663419 445.27162a62.362972 62.362972 0 0 0-124.725944 0 293.937475 293.937475 0 1 1-587.87495 0 62.362972 62.362972 0 0 0-124.725944 0 419.494925 419.494925 0 0 0 334.88916 410.348356 70.885911 70.885911 0 0 0-1.039383 9.562322v74.00406a84.813642 84.813642 0 1 0 169.627284 0v-74.00406-9.562322a419.287048 419.287048 0 0 0 333.849777-410.348356z" fill="#ffffff" p-id="2438"></path></svg>